ffmpeg started on 2016-12-06 at 22:17:46
Report written to "Output/x264/results/ffmpeg/Tcrowd_run_2160p50medium8000k.log"
Command line:
Tools/ffmpeg/ffmpeg -i Output/x264/encoded/crowd_run_2160p50medium8000k.mkv -c:v rawvideo -pix_fmt yuv420p Output/x264/transcoded/crowd_run_2160p50medium8000k.yuv
ffmpeg version N-82227-gdb23fde Copyright (c) 2000-2016 the FFmpeg developers
  built with gcc 5.4.0 (Ubuntu 5.4.0-6ubuntu1~16.04.2) 20160609
  configuration: --prefix=/home/jaroslav/ffmpeg_build --pkg-config-flags=--static --extra-cflags=-I/home/jaroslav/ffmpeg_build/include --extra-ldflags=-L/home/jaroslav/ffmpeg_build/lib --bindir=/home/jaroslav/bin --enable-gpl --enable-libass --enable-libfdk-aac --enable-libfreetype --enable-libmp3lame --enable-libopus --enable-libtheora --enable-libvorbis --enable-libvpx --enable-libx264 --enable-libx265 --enable-nvenc --enable-libmfx --enable-libxvid --enable-libgsm --enable-libopencore-amrnb --enable-version3 --enable-nonfree
  libavutil      55. 35.100 / 55. 35.100
  libavcodec     57. 66.101 / 57. 66.101
  libavformat    57. 57.100 / 57. 57.100
  libavdevice    57.  2.100 / 57.  2.100
  libavfilter     6. 66.100 /  6. 66.100
  libswscale      4.  3.100 /  4.  3.100
  libswresample   2.  4.100 /  2.  4.100
  libpostproc    54.  2.100 / 54.  2.100
Input #0, matroska,webm, from 'Output/x264/encoded/crowd_run_2160p50medium8000k.mkv':
  Metadata:
    ENCODER         : Lavf57.57.100
  Duration: 00:00:10.00, start: 0.000000, bitrate: 8095 kb/s
    Stream #0:0: Video: h264 (High), yuv420p(progressive), 3840x2160 [SAR 1:1 DAR 16:9], 50 fps, 50 tbr, 1k tbn, 100 tbc (default)
    Metadata:
      ENCODER         : Lavc57.66.101 libx264
      DURATION        : 00:00:10.000000000
Output #0, rawvideo, to 'Output/x264/transcoded/crowd_run_2160p50medium8000k.yuv':
  Metadata:
    encoder         : Lavf57.57.100
    Stream #0:0: Video: rawvideo (I420 / 0x30323449), yuv420p, 3840x2160 [SAR 1:1 DAR 16:9], q=2-31, 200 kb/s, 50 fps, 50 tbn, 50 tbc (default)
    Metadata:
      DURATION        : 00:00:10.000000000
      encoder         : Lavc57.66.101 rawvideo
Stream mapping:
  Stream #0:0 -> #0:0 (h264 (native) -> rawvideo (native))
Press [q] to stop, [?] for help
frame=   15 fps=0.0 q=-0.0 size=  182250kB time=00:00:00.30 bitrate=4976640.0kbits/s speed=0.591x    frame=   32 fps= 31 q=-0.0 size=  388800kB time=00:00:00.64 bitrate=4976640.0kbits/s speed=0.626x    frame=   49 fps= 32 q=-0.0 size=  595350kB time=00:00:00.98 bitrate=4976640.0kbits/s speed=0.636x    frame=   66 fps= 32 q=-0.0 size=  801900kB time=00:00:01.32 bitrate=4976640.0kbits/s speed=0.643x    frame=   83 fps= 32 q=-0.0 size= 1008450kB time=00:00:01.66 bitrate=4976640.0kbits/s speed=0.647x    frame=  100 fps= 32 q=-0.0 size= 1215000kB time=00:00:02.00 bitrate=4976640.0kbits/s speed=0.65x    frame=  117 fps= 33 q=-0.0 size= 1421550kB time=00:00:02.34 bitrate=4976640.0kbits/s speed=0.651x    frame=  134 fps= 33 q=-0.0 size= 1628100kB time=00:00:02.68 bitrate=4976640.0kbits/s speed=0.653x    frame=  151 fps= 33 q=-0.0 size= 1834650kB time=00:00:03.02 bitrate=4976640.0kbits/s speed=0.654x    frame=  168 fps= 33 q=-0.0 size= 2041200kB time=00:00:03.36 bitrate=4976640.0kbits/s speed=0.655x    frame=  185 fps= 33 q=-0.0 size= 2247750kB time=00:00:03.70 bitrate=4976640.0kbits/s speed=0.654x    frame=  202 fps= 33 q=-0.0 size= 2454300kB time=00:00:04.04 bitrate=4976640.0kbits/s speed=0.654x    frame=  219 fps= 33 q=-0.0 size= 2660850kB time=00:00:04.38 bitrate=4976640.0kbits/s speed=0.654x    frame=  236 fps= 33 q=-0.0 size= 2867400kB time=00:00:04.72 bitrate=4976640.0kbits/s speed=0.654x    frame=  253 fps= 33 q=-0.0 size= 3073950kB time=00:00:05.06 bitrate=4976640.0kbits/s speed=0.654x    frame=  269 fps= 33 q=-0.0 size= 3268350kB time=00:00:05.38 bitrate=4976640.0kbits/s speed=0.651x    frame=  277 fps= 32 q=-0.0 size= 3365550kB time=00:00:05.54 bitrate=4976640.0kbits/s speed=0.631x    frame=  291 fps= 31 q=-0.0 size= 3535650kB time=00:00:05.82 bitrate=4976640.0kbits/s speed=0.626x    frame=  307 fps= 31 q=-0.0 size= 3730050kB time=00:00:06.14 bitrate=4976640.0kbits/s speed=0.625x    frame=  322 fps= 31 q=-0.0 size= 3912300kB time=00:00:06.44 bitrate=4976640.0kbits/s speed=0.621x    frame=  336 fps= 31 q=-0.0 size= 4082400kB time=00:00:06.72 bitrate=4976640.0kbits/s speed=0.618x    frame=  350 fps= 31 q=-0.0 size= 4252500kB time=00:00:07.00 bitrate=4976640.0kbits/s speed=0.614x    frame=  362 fps= 30 q=-0.0 size= 4398300kB time=00:00:07.24 bitrate=4976640.0kbits/s speed=0.608x    frame=  377 fps= 30 q=-0.0 size= 4580550kB time=00:00:07.54 bitrate=4976640.0kbits/s speed=0.607x    frame=  389 fps= 30 q=-0.0 size= 4726350kB time=00:00:07.78 bitrate=4976640.0kbits/s speed=0.595x    frame=  403 fps= 30 q=-0.0 size= 4896450kB time=00:00:08.06 bitrate=4976640.0kbits/s speed=0.593x    frame=  410 fps= 29 q=-0.0 size= 4981500kB time=00:00:08.20 bitrate=4976640.0kbits/s speed=0.582x    frame=  418 fps= 29 q=-0.0 size= 5078700kB time=00:00:08.36 bitrate=4976640.0kbits/s speed=0.572x    frame=  427 fps= 28 q=-0.0 size= 5188050kB time=00:00:08.54 bitrate=4976640.0kbits/s speed=0.565x    frame=  440 fps= 28 q=-0.0 size= 5346000kB time=00:00:08.80 bitrate=4976640.0kbits/s speed=0.563x    frame=  449 fps= 28 q=-0.0 size= 5455350kB time=00:00:08.98 bitrate=4976640.0kbits/s speed=0.557x    frame=  461 fps= 28 q=-0.0 size= 5601150kB time=00:00:09.22 bitrate=4976640.0kbits/s speed=0.553x    frame=  475 fps= 28 q=-0.0 size= 5771250kB time=00:00:09.50 bitrate=4976640.0kbits/s speed=0.553x    frame=  489 fps= 28 q=-0.0 size= 5941350kB time=00:00:09.78 bitrate=4976640.0kbits/s speed=0.553x    frame=  500 fps= 28 q=-0.0 Lsize= 6075000kB time=00:00:10.00 bitrate=4976640.0kbits/s speed=0.551x    
video:6075000kB audio:0kB subtitle:0kB other streams:0kB global headers:0kB muxing overhead: 0.000000%
